<?xml version="1.0" encoding="UTF-8"?>
<svg id="Layer_1" xmlns="http://www.w3.org/2000/svg" version="1.1" viewBox="0 0 1920 1080">
  <!-- Generator: Adobe Illustrator 29.3.1, SVG Export Plug-In . SVG Version: 2.1.0 Build 151)  -->
  <defs>
    <style>
      .st0 {
        fill: #6149a3;
      }

      .st1 {
        fill: #6048a3;
      }
    </style>
  </defs>
  <path class="st1" d="M691.21,578.78c-34.69-9.66-55.93,9.21-79.71,30.4-62.84,55.99-123.6,145.9-214.81,152.13-73.05,5-142.33-2.92-173.45-78.34-14.31-34.68-20.43-106.36-42.74-131.3-24.71-27.63-72.32-8.77-76.17,28.41-7.44,71.91,127.54,63.75,117,140.07-4.52,32.72-46.99,31.09-50.2,8.46-.68-4.8,6.85-2.71,8.42-10.43,5.6-27.58-43.51-40.9-62.7-52.53-28.76-17.43-49.14-40.18-49.69-75.68-1.35-87.3,117.11-115.02,160.24-41.17,6.57,11.25,9.71,23.17,16.13,34.15,10.65-11.92,30.13-26.91,46.31-29.13,27.91-3.82,100.69-2.78,129.89-.26,33.83,2.92,45.91,33.95,77.73,37.59,43.82,5.02,77.4-27.11,115.66-39.05,9.52-2.97,31.44-5.11,41.3-4.86,15.75.4,33.38,16.58,36.77,31.53Z"/>
  <path class="st0" d="M716.38,738.16c-1.45.39-4.43-.95-5.85.35-6.51,17.28-10.84,36.31-20.36,52.07h-40.89l84.89-228.58c4.04-4.85,32.09-.57,39.95-2.21l93.22,230.79h-42.98c-7.76-9.52-13.73-47.26-22.02-52.42-1.96-1.22-1.87-1.82-5.02-2.21-16.62-2.08-56.51-1.44-73.86-.04-4.07.33-4.98,1.68-7.09,2.25ZM722.67,704.61c.37,3.2,2.85,1.9,5.2,2.14,14.78,1.52,39.45.86,54.74.07,2.56-.13,5.89.64,7.16-2.22l-31.48-94.35-35.62,94.35Z"/>
  <path class="st0" d="M1628.48,738.16c-1.06.41-2.74-.91-4.34,1.33-5.85,8.2-12.16,39.9-16.63,51.09h-44.03l86.18-227.29c5.65-7.2,31.11-1.5,40.76-3.5l91.13,230.79h-41.94l-18.69-51.16c-1.5-2.58-4.75-.79-6.47-1.26-15.35-4.21-40.72-2.34-57.69-2.13-3.54.04-9.32-1.34-11.5,2.13h-4.19c-3.68-4.96-8.69-1.49-12.58,0ZM1636.87,704.61c.37,3.2,2.85,1.9,5.2,2.14,14.65,1.51,46.21,1.47,60.89,0,2.19-.22,5.11,1.01,5.2-2.14l-36.69-96.47-34.6,96.47Z"/>
  <path class="st0" d="M1284.61,562.03c-3.47,2.18-2.1,7.96-2.13,11.5-.64,60.88-4.32,134.95,2.13,193.98.84,7.68,2.77,15.24,2.1,23.06h-37.74c2.7-31.07-6.21-9-21.64-1.72-45.73,21.57-103.05-11.35-108.36-61.18,3.49-8.5,3.54-24.61,0-33.55,3.05-28.66,30.92-62.58,60.48-65.93,4.26-.48,9.07,1.9,13.61.94,1.88-.4.55-5.88,6.64-4.25.8.21.9,4.11,2.37,4.34,3.58.57,7.61-2.09,11.82-1.76,5.28.42,20.84,8.82,25.39,12.39,2.85,2.24,2.35,6.1,5.49,6.03v-82.82c0-4.36,30.13-3.8,34.71-3.24,2.05.25,4.9-.71,5.13,2.19ZM1191.77,658.96c-39.87,8.21-46.54,72.98-15.14,95.97,26.15,19.14,65.63,3.75,70.05-28.48,4.93-35.96-12.44-76.23-54.91-67.49Z"/>
  <path class="st0" d="M1100.09,790.58h-37.74c-.85,0,.5-13.74-2.12-16.77-26.87,33.54-99.3,27.94-104.57-20.15-6.36-57.96,58.49-61.43,100.42-65.82.65-46.72-60.33-28.83-85.96-14.68,2.13-7.53-11.53-23.59-9.62-27.27,40.61-29.45,128.43-31.89,135.43,32.5,3.82,35.17-2.95,76.16,4.18,112.19ZM1060.25,715.1c-16.46-.47-57.45,3.88-63.33,21.55-7.17,21.56,13.11,34.52,33.03,28.87,24.74-7.02,32.01-26.4,30.29-50.42Z"/>
  <path class="st0" d="M496.21,178.29c-11.66,5.07-27.28,18.37-35.6,28.38-73.13,87.98,85.78,79.56,110.7,130.34,20.13,41.02-30.77,89.2-65.63,103.44-3.08-4.34,5.99-7.48,9.36-11.62,24.42-29.99,32.7-60.63-7.55-80.42-37.93-18.65-111.3-25.68-116.2-78.8-4.2-45.61,32.67-78.59,73.49-90.23,2.56-.73,37.62-8.92,31.43-1.09Z"/>
  <path class="st0" d="M1544.61,694.13l-2.1,94.36h-35.65c-2.93-29.76,3.88-66.77.12-95.62-.42-3.25-1.99-4.19-2.22-5.02-6.56-23.37-26.03-35.83-49.67-25.56-10.95,4.76-21.62,18.78-21.62,30.8v97.5h-39.85c-.1-1.39.08-2.8.01-4.19v-150.97c.18-.65-.26-1.55,0-2.1h37.74c2.78,4.62-.35,14.4,1.07,14.69l17.12-14.32c54.17-20.65,91.49,3.05,95.03,60.44Z"/>
  <path class="st0" d="M926.06,559.93v230.65h-41.94v-227.5c0-.22,2.92-3.15,3.15-3.15h38.79Z"/>
  <path class="st0" d="M257.18,822.03c7.56-7.99,15.48-13,25.83-17.15,6.1-2.45,25.58-6.06,26.72-6.83,3.72-2.52,1.42-13.41,1.97-17.95h125.81c.83,0-.98,15.56.1,16.68s22.94,4.93,29.22,7.47c9.24,3.73,18.02,8.8,25.2,15.69,1.17,6.35-3.2,4.03-7.24,4.19-70.18,2.78-145.52.78-216.1.04-3.55-.04-9.33,1.34-11.5-2.13Z"/>
  <rect class="st1" x="1318.16" y="631.22" width="39.84" height="159.36"/>
  <path class="st0" d="M315.89,534.77c-2.77-.23-2.1-3.06-2.23-5.17-1.06-16.84,8.17-35.2,26.25-36.86,10.89-1,50.83-1.44,59.8,1.3,4.91,1.5,13.59,13.39,15.24,18.22,1.33,3.9,4.2,18.05,1.59,20.42l-100.65,2.1Z"/>
  <path class="st0" d="M1330.13,560.38c45.78-10.48,40.13,56.02-3.69,42.65-18.44-5.63-15.22-38.32,3.69-42.65Z"/>
  <path class="st0" d="M1813,562.03c1.72-5.2,33.17-.06,39.84-2.1v230.65c-11.62-1.11-25.53,1.5-36.8.06-1.68-.21-3.14-.09-3.04-2.15v-226.45ZM1846.55,566.22c-1.04-1.04-24.91.76-29.36,0v220.16h29.36c.63,0-1.87-7.07,2.08-6.28l2.1,8.37c.73-4.61-2.03-8.92-1.87-13.39,2.16-59.35,3.19-120.52,1.98-180.63-.14-7-3.04-13.11-.01-20.86l-4.25,5.2c-.5-2.56.63-11.92-.02-12.57Z"/>
  <path class="st0" d="M363.52,428.27c29.72-6.68,29.07,35.34,13.31,40.57-30.33,10.07-37.01-35.24-13.31-40.57Z"/>
  <path class="st1" d="M492.02,819.93c1.47,1.41,7.05,3.14,3.14,6.3h-241.12c-3.05-1.3,2.48-3.51,3.14-4.2,2.17,3.47,7.96,2.1,11.5,2.13,70.57.74,145.92,2.74,216.1-.04,4.04-.16,8.41,2.16,7.24-4.19Z"/>
  <path class="st1" d="M1504.77,687.84c.23.83,1.79,1.77,2.22,5.02,3.76,28.85-3.05,65.86-.12,95.62h35.65l2.1-94.36c1.94,31.46-1.44,64.79,0,96.45h-39.84v-102.74Z"/>
  <path class="st1" d="M1813,788.48v-226.45,226.45Z"/>
  <path class="st1" d="M1284.61,767.51c-6.46-59.04-2.77-133.1-2.13-193.98.04-3.54-1.34-9.32,2.13-11.5v205.49Z"/>
  <path class="st1" d="M1393.64,786.38c-2.42-49.62,1.8-101.15,0-150.97v150.97Z"/>
  <path class="st1" d="M416.54,532.67c-6.5,5.93-86.23-.15-100.65,2.1l100.65-2.1Z"/>
  <path class="st1" d="M802.35,738.16h-85.97c2.11-.57,3.02-1.92,7.09-2.25,17.35-1.41,57.23-2.04,73.86.04,3.16.4,3.06.99,5.02,2.21Z"/>
  <path class="st1" d="M1714.45,738.16h-69.19c2.18-3.48,7.96-2.09,11.5-2.13,16.97-.21,42.34-2.07,57.69,2.13Z"/>
  <path class="st1" d="M1431.38,633.32h-37.74c1.38-2.93,2.53-1.96,5.11-2.2,5.32-.48,30.69-1.03,32.63,2.2Z"/>
  <path class="st1" d="M1118.96,727.67c-.9-8.44-.9-25.11,0-33.55,3.54,8.94,3.49,25.05,0,33.55Z"/>
  <path class="st1" d="M1641.06,738.16h-12.58c3.89-1.49,8.9-4.96,12.58,0Z"/>
  <path class="st1" d="M789.76,704.61c-1.28,2.86-4.6,2.09-7.16,2.22-15.29.78-39.96,1.44-54.74-.07-2.35-.24-4.83,1.06-5.2-2.14h67.1Z"/>
  <path class="st1" d="M1708.16,704.61c-.09,3.15-3.01,1.92-5.2,2.14-14.69,1.48-46.24,1.51-60.89,0-2.35-.24-4.83,1.06-5.2-2.14h71.29Z"/>
  <path class="st1" d="M1846.55,566.22c.65.65-.48,10.01.02,12.57l4.25-5.2c-3.03,7.74-.13,13.85.01,20.86,1.21,60.12.17,121.29-1.98,180.63-.16,4.47,2.6,8.79,1.87,13.39l-2.1-8.37c-3.94-.79-1.45,6.28-2.08,6.28h-29.36v-220.16c4.45.76,28.32-1.04,29.36,0ZM1848.62,597.66v-8.37h-2.05v8.37h2.05ZM1848.62,614.44v-10.46h-2.05v10.46h2.05ZM1848.65,671.06v-52.42h-2.1v52.42h2.1ZM1848.62,742.34c1.51-2.94-1.33-5.59-2.05-4.17-1.51,2.94,1.33,5.59,2.05,4.17Z"/>
  <rect class="st0" x="1846.55" y="618.64" width="2.1" height="52.42"/>
  <rect class="st0" x="1846.57" y="603.97" width="2.05" height="10.46"/>
  <rect class="st0" x="1846.57" y="589.3" width="2.05" height="8.37"/>
  <path class="st0" d="M1848.62,742.34c-.73,1.42-3.56-1.23-2.05-4.17.73-1.42,3.56,1.23,2.05,4.17Z"/>
</svg>